<svg xmlns="http://www.w3.org/2000/svg" xmlns:xlink="http://www.w3.org/1999/xlink" width="500" zoomAndPan="magnify" viewBox="0 0 375 374.999991" height="500" preserveAspectRatio="xMidYMid meet" version="1.0"><defs><clipPath id="82739f1162"><path d="M 1.214844 2.429688 L 373.964844 2.429688 L 373.964844 375 L 1.214844 375 Z M 1.214844 2.429688 " clip-rule="nonzero"/></clipPath></defs><g clip-path="url(#82739f1162)"><path fill="#000000" d="M 187.558594 2.460938 C 239.023438 2.460938 285.617188 23.320312 319.351562 57.046875 C 353.074219 90.773438 373.933594 137.367188 373.933594 188.835938 C 373.933594 240.300781 353.074219 286.894531 319.351562 320.628906 C 285.625 354.351562 239.03125 375.210938 187.558594 375.210938 C 136.097656 375.210938 89.503906 354.351562 55.769531 320.628906 C 22.042969 286.894531 1.183594 240.300781 1.183594 188.835938 C 1.183594 137.375 22.042969 90.78125 55.769531 57.046875 C 89.503906 23.320312 136.097656 2.460938 187.558594 2.460938 Z M 315.195312 61.199219 C 282.53125 28.539062 237.40625 8.332031 187.558594 8.332031 C 137.710938 8.332031 92.585938 28.539062 59.921875 61.199219 C 27.261719 93.863281 7.054688 138.988281 7.054688 188.835938 C 7.054688 238.683594 27.261719 283.808594 59.921875 316.472656 C 92.585938 349.132812 137.710938 369.339844 187.558594 369.339844 C 237.40625 369.339844 282.53125 349.132812 315.195312 316.472656 C 347.855469 283.808594 368.0625 238.683594 368.0625 188.835938 C 368.0625 138.988281 347.855469 93.863281 315.195312 61.199219 Z M 315.195312 61.199219 " fill-opacity="1" fill-rule="nonzero"/></g><path fill="#000000" d="M 85.898438 74.277344 C 78.761719 74.277344 72.960938 80.085938 72.960938 87.222656 L 72.960938 234.171875 C 72.960938 241.308594 78.769531 247.117188 85.898438 247.117188 L 289.210938 247.117188 C 296.347656 247.117188 302.148438 241.308594 302.148438 234.171875 L 302.148438 87.222656 C 302.148438 80.085938 296.339844 74.277344 289.210938 74.277344 Z M 289.21875 250.75 L 85.898438 250.75 C 76.757812 250.75 69.320312 243.3125 69.320312 234.171875 L 69.320312 87.222656 C 69.320312 78.082031 76.757812 70.644531 85.898438 70.644531 L 289.210938 70.644531 C 298.351562 70.644531 305.789062 78.082031 305.789062 87.222656 L 305.789062 234.171875 C 305.789062 243.3125 298.359375 250.75 289.21875 250.75 Z M 289.21875 250.75 " fill-opacity="1" fill-rule="nonzero"/><path fill="#000000" d="M 289.21875 87.277344 Z M 85.953125 234.117188 L 289.164062 234.117188 L 289.164062 87.269531 L 85.953125 87.269531 Z M 289.21875 237.761719 L 85.898438 237.761719 C 83.925781 237.761719 82.3125 236.152344 82.3125 234.171875 L 82.3125 87.222656 C 82.3125 85.242188 83.917969 83.636719 85.898438 83.636719 L 289.210938 83.636719 C 291.183594 83.636719 292.800781 85.242188 292.800781 87.222656 L 292.800781 234.171875 C 292.800781 236.152344 291.191406 237.761719 289.21875 237.761719 Z M 289.21875 237.761719 " fill-opacity="1" fill-rule="nonzero"/><path fill="#000000" d="M 169.277344 283.210938 C 168.277344 283.210938 167.460938 282.398438 167.460938 281.394531 L 167.460938 248.933594 C 167.460938 247.933594 168.277344 247.117188 169.277344 247.117188 C 170.28125 247.117188 171.097656 247.933594 171.097656 248.933594 L 171.097656 281.394531 C 171.097656 282.398438 170.28125 283.210938 169.277344 283.210938 Z M 205.839844 283.210938 C 204.835938 283.210938 204.023438 282.398438 204.023438 281.394531 L 204.023438 248.933594 C 204.023438 247.933594 204.835938 247.117188 205.839844 247.117188 C 206.839844 247.117188 207.65625 247.933594 207.65625 248.933594 L 207.65625 281.394531 C 207.664062 282.398438 206.847656 283.210938 205.839844 283.210938 Z M 205.839844 283.210938 " fill-opacity="1" fill-rule="nonzero"/><path fill="#000000" d="M 125.636719 303.394531 L 249.480469 303.394531 L 249.480469 293.308594 C 249.480469 287.738281 244.953125 283.210938 239.394531 283.210938 L 135.722656 283.210938 C 130.164062 283.210938 125.636719 287.738281 125.636719 293.308594 Z M 251.300781 307.03125 L 123.820312 307.03125 C 122.816406 307.03125 122 306.214844 122 305.210938 L 122 293.308594 C 122 285.734375 128.160156 279.578125 135.730469 279.578125 L 239.402344 279.578125 C 246.972656 279.578125 253.132812 285.734375 253.132812 293.308594 L 253.132812 305.210938 C 253.117188 306.214844 252.308594 307.03125 251.300781 307.03125 Z M 251.300781 307.03125 " fill-opacity="1" fill-rule="nonzero"/><path fill="#000000" d="M 112.316406 214.671875 C 111.316406 214.671875 110.5 213.859375 110.5 212.855469 L 110.5 201.214844 C 110.5 200.214844 111.316406 199.398438 112.316406 199.398438 C 113.320312 199.398438 114.136719 200.214844 114.136719 201.214844 L 114.136719 212.855469 C 114.144531 213.859375 113.328125 214.671875 112.316406 214.671875 Z M 112.316406 214.671875 " fill-opacity="1" fill-rule="nonzero"/><path fill="#000000" d="M 141.726562 214.671875 C 140.726562 214.671875 139.910156 213.859375 139.910156 212.855469 L 139.910156 201.214844 C 139.910156 200.214844 140.726562 199.398438 141.726562 199.398438 C 142.726562 199.398438 143.542969 200.214844 143.542969 201.214844 L 143.542969 212.855469 C 143.542969 213.859375 142.726562 214.671875 141.726562 214.671875 Z M 141.726562 214.671875 " fill-opacity="1" fill-rule="nonzero"/><path fill="#000000" d="M 100.964844 211.03125 L 153.117188 211.03125 C 153.164062 209.9375 153.234375 208.730469 153.3125 207.480469 C 153.714844 200.933594 154.316406 191.050781 150.90625 187.421875 C 149.988281 186.453125 148.800781 185.980469 147.269531 185.980469 L 139.054688 185.980469 C 137.253906 190.171875 132.375 193.085938 126.894531 193.085938 C 121.410156 193.085938 116.542969 190.164062 114.734375 185.980469 L 106.75 185.980469 C 105.210938 185.980469 104.023438 186.453125 103.109375 187.429688 C 99.699219 191.066406 100.335938 200.941406 100.753906 207.480469 C 100.839844 208.730469 100.910156 209.9375 100.964844 211.03125 Z M 154.898438 214.671875 L 99.195312 214.671875 C 98.191406 214.671875 97.378906 213.863281 97.378906 212.863281 C 97.371094 211.472656 97.261719 209.734375 97.128906 207.722656 C 96.617188 199.699219 95.972656 189.730469 100.453125 184.945312 C 102.066406 183.222656 104.179688 182.34375 106.742188 182.34375 L 116.023438 182.34375 C 116.851562 182.34375 117.582031 182.910156 117.785156 183.710938 C 118.632812 187.035156 122.460938 189.449219 126.886719 189.449219 C 131.3125 189.449219 135.140625 187.035156 135.988281 183.710938 C 136.191406 182.902344 136.917969 182.34375 137.75 182.34375 L 147.253906 182.34375 C 149.808594 182.34375 151.921875 183.214844 153.539062 184.9375 C 158.035156 189.714844 157.421875 199.691406 156.929688 207.707031 C 156.816406 209.640625 156.699219 211.464844 156.699219 212.855469 C 156.714844 213.859375 155.898438 214.671875 154.898438 214.671875 Z M 154.898438 214.671875 " fill-opacity="1" fill-rule="nonzero"/><path fill="#000000" d="M 116.03125 185.980469 C 115.027344 185.980469 114.210938 185.164062 114.210938 184.160156 L 114.210938 174.4375 C 114.210938 173.4375 115.027344 172.621094 116.03125 172.621094 C 117.03125 172.621094 117.847656 173.4375 117.847656 174.4375 L 117.847656 184.160156 C 117.847656 185.164062 117.03125 185.980469 116.03125 185.980469 Z M 116.03125 185.980469 " fill-opacity="1" fill-rule="nonzero"/><path fill="#000000" d="M 137.757812 185.980469 C 136.757812 185.980469 135.941406 185.164062 135.941406 184.160156 L 135.941406 174.609375 C 135.941406 173.609375 136.757812 172.792969 137.757812 172.792969 C 138.761719 172.792969 139.574219 173.609375 139.574219 174.609375 L 139.574219 184.160156 C 139.574219 185.164062 138.761719 185.980469 137.757812 185.980469 Z M 137.757812 185.980469 " fill-opacity="1" fill-rule="nonzero"/><path fill="#000000" d="M 127.003906 143.78125 C 118.035156 143.78125 110.734375 151.082031 110.734375 160.058594 C 110.734375 169.027344 118.035156 176.332031 127.003906 176.332031 C 135.980469 176.332031 143.28125 169.035156 143.28125 160.058594 C 143.28125 151.089844 135.980469 143.78125 127.003906 143.78125 Z M 127.003906 179.96875 C 116.03125 179.96875 107.09375 171.039062 107.09375 160.058594 C 107.09375 149.078125 116.023438 140.144531 127.003906 140.144531 C 137.984375 140.144531 146.914062 149.078125 146.914062 160.058594 C 146.921875 171.039062 137.984375 179.96875 127.003906 179.96875 Z M 127.003906 179.96875 " fill-opacity="1" fill-rule="nonzero"/><path fill="#000000" d="M 233.390625 214.671875 C 232.390625 214.671875 231.574219 213.859375 231.574219 212.855469 L 231.574219 201.214844 C 231.574219 200.214844 232.390625 199.398438 233.390625 199.398438 C 234.394531 199.398438 235.210938 200.214844 235.210938 201.214844 L 235.210938 212.855469 C 235.210938 213.859375 234.394531 214.671875 233.390625 214.671875 Z M 233.390625 214.671875 " fill-opacity="1" fill-rule="nonzero"/><path fill="#000000" d="M 262.800781 214.671875 C 261.796875 214.671875 260.984375 213.859375 260.984375 212.855469 L 260.984375 201.214844 C 260.984375 200.214844 261.796875 199.398438 262.800781 199.398438 C 263.800781 199.398438 264.617188 200.214844 264.617188 201.214844 L 264.617188 212.855469 C 264.617188 213.859375 263.800781 214.671875 262.800781 214.671875 Z M 262.800781 214.671875 " fill-opacity="1" fill-rule="nonzero"/><path fill="#000000" d="M 222.039062 211.03125 L 274.191406 211.03125 C 274.238281 209.9375 274.308594 208.730469 274.386719 207.480469 C 274.789062 200.933594 275.386719 191.050781 271.972656 187.421875 C 271.054688 186.453125 269.867188 185.980469 268.335938 185.980469 L 260.121094 185.980469 C 258.3125 190.171875 253.449219 193.085938 247.960938 193.085938 C 242.46875 193.085938 237.609375 190.164062 235.800781 185.980469 L 227.816406 185.980469 C 226.277344 185.980469 225.089844 186.453125 224.175781 187.429688 C 220.765625 191.066406 221.410156 200.941406 221.820312 207.480469 C 221.90625 208.730469 221.992188 209.9375 222.039062 211.03125 Z M 275.964844 214.671875 L 220.269531 214.671875 C 219.265625 214.671875 218.449219 213.863281 218.449219 212.863281 C 218.449219 211.472656 218.335938 209.734375 218.203125 207.722656 C 217.691406 199.699219 217.046875 189.730469 221.527344 184.945312 C 223.140625 183.222656 225.261719 182.34375 227.824219 182.34375 L 237.105469 182.34375 C 237.933594 182.34375 238.664062 182.910156 238.867188 183.710938 C 239.714844 187.035156 243.542969 189.449219 247.96875 189.449219 C 252.394531 189.449219 256.214844 187.035156 257.070312 183.710938 C 257.269531 182.902344 258 182.34375 258.832031 182.34375 L 268.34375 182.34375 C 270.898438 182.34375 273.011719 183.214844 274.628906 184.9375 C 279.117188 189.714844 278.511719 199.691406 278.019531 207.707031 C 277.90625 209.640625 277.796875 211.464844 277.789062 212.855469 C 277.789062 213.859375 276.972656 214.671875 275.964844 214.671875 Z M 275.964844 214.671875 " fill-opacity="1" fill-rule="nonzero"/><path fill="#000000" d="M 237.105469 185.980469 C 236.101562 185.980469 235.285156 185.164062 235.285156 184.160156 L 235.285156 174.4375 C 235.285156 173.4375 236.101562 172.621094 237.105469 172.621094 C 238.105469 172.621094 238.921875 173.4375 238.921875 174.4375 L 238.921875 184.160156 C 238.921875 185.164062 238.105469 185.980469 237.105469 185.980469 Z M 237.105469 185.980469 " fill-opacity="1" fill-rule="nonzero"/><path fill="#000000" d="M 258.824219 185.980469 C 257.824219 185.980469 257.007812 185.164062 257.007812 184.160156 L 257.007812 174.609375 C 257.007812 173.609375 257.824219 172.792969 258.824219 172.792969 C 259.824219 172.792969 260.640625 173.609375 260.640625 174.609375 L 260.640625 184.160156 C 260.648438 185.164062 259.832031 185.980469 258.824219 185.980469 Z M 258.824219 185.980469 " fill-opacity="1" fill-rule="nonzero"/><path fill="#000000" d="M 248.085938 143.78125 C 239.109375 143.78125 231.808594 151.082031 231.808594 160.058594 C 231.808594 169.027344 239.109375 176.332031 248.085938 176.332031 C 257.054688 176.332031 264.351562 169.035156 264.351562 160.058594 C 264.351562 151.089844 257.054688 143.78125 248.085938 143.78125 Z M 248.085938 179.96875 C 237.105469 179.96875 228.171875 171.039062 228.171875 160.058594 C 228.171875 149.078125 237.105469 140.144531 248.085938 140.144531 C 259.066406 140.144531 267.996094 149.078125 267.996094 160.058594 C 267.988281 171.039062 259.058594 179.96875 248.085938 179.96875 Z M 248.085938 179.96875 " fill-opacity="1" fill-rule="nonzero"/><path fill="#000000" d="M 210.351562 165.726562 L 164.765625 165.726562 C 163.765625 165.726562 162.949219 164.910156 162.949219 163.910156 C 162.949219 162.90625 163.765625 162.09375 164.765625 162.09375 L 210.351562 162.09375 C 211.351562 162.09375 212.167969 162.90625 212.167969 163.910156 C 212.167969 164.910156 211.351562 165.726562 210.351562 165.726562 Z M 210.351562 165.726562 " fill-opacity="1" fill-rule="nonzero"/><path fill="#000000" d="M 210.351562 165.726562 C 209.886719 165.726562 209.417969 165.546875 209.070312 165.199219 L 200.316406 156.453125 C 199.613281 155.746094 199.613281 154.589844 200.316406 153.882812 C 201.023438 153.175781 202.183594 153.175781 202.886719 153.882812 L 211.640625 162.628906 C 212.347656 163.34375 212.347656 164.492188 211.640625 165.199219 C 211.28125 165.546875 210.824219 165.726562 210.351562 165.726562 Z M 210.351562 165.726562 " fill-opacity="1" fill-rule="nonzero"/><path fill="#000000" d="M 201.605469 174.46875 C 201.140625 174.46875 200.675781 174.292969 200.316406 173.941406 C 199.613281 173.226562 199.613281 172.078125 200.316406 171.371094 L 209.070312 162.628906 C 209.777344 161.921875 210.933594 161.921875 211.640625 162.628906 C 212.347656 163.34375 212.347656 164.492188 211.640625 165.199219 L 202.886719 173.941406 C 202.539062 174.292969 202.074219 174.46875 201.605469 174.46875 Z M 201.605469 174.46875 " fill-opacity="1" fill-rule="nonzero"/><path fill="#000000" d="M 210.351562 192.726562 L 164.765625 192.726562 C 163.765625 192.726562 162.949219 191.910156 162.949219 190.910156 C 162.949219 189.910156 163.765625 189.09375 164.765625 189.09375 L 210.351562 189.09375 C 211.351562 189.09375 212.167969 189.910156 212.167969 190.910156 C 212.167969 191.910156 211.351562 192.726562 210.351562 192.726562 Z M 210.351562 192.726562 " fill-opacity="1" fill-rule="nonzero"/><path fill="#000000" d="M 164.765625 192.726562 C 164.300781 192.726562 163.835938 192.546875 163.476562 192.191406 C 162.769531 191.484375 162.769531 190.328125 163.476562 189.621094 L 172.230469 180.875 C 172.9375 180.171875 174.09375 180.171875 174.800781 180.875 C 175.507812 181.582031 175.507812 182.742188 174.800781 183.449219 L 166.054688 192.191406 C 165.691406 192.546875 165.234375 192.726562 164.765625 192.726562 Z M 164.765625 192.726562 " fill-opacity="1" fill-rule="nonzero"/><path fill="#000000" d="M 173.511719 201.472656 C 173.046875 201.472656 172.585938 201.292969 172.230469 200.941406 L 163.476562 192.199219 C 162.769531 191.492188 162.769531 190.335938 163.476562 189.628906 C 164.191406 188.921875 165.339844 188.921875 166.046875 189.628906 L 174.792969 198.371094 C 175.5 199.078125 175.5 200.238281 174.792969 200.941406 C 174.441406 201.292969 173.976562 201.472656 173.511719 201.472656 Z M 173.511719 201.472656 " fill-opacity="1" fill-rule="nonzero"/><path fill="#000000" d="M 210.234375 117.066406 C 209.894531 117.066406 209.550781 116.972656 209.25 116.773438 C 202.789062 112.578125 195.292969 110.363281 187.558594 110.363281 C 179.832031 110.363281 172.332031 112.578125 165.871094 116.773438 C 165.023438 117.324219 163.898438 117.082031 163.355469 116.234375 C 162.800781 115.390625 163.050781 114.261719 163.882812 113.71875 C 170.933594 109.136719 179.117188 106.722656 187.550781 106.722656 C 195.984375 106.722656 204.167969 109.144531 211.214844 113.71875 C 212.058594 114.261719 212.292969 115.390625 211.75 116.234375 C 211.414062 116.773438 210.832031 117.066406 210.234375 117.066406 Z M 210.234375 117.066406 " fill-opacity="1" fill-rule="nonzero"/><path fill="#000000" d="M 202.445312 124.855469 C 202.144531 124.855469 201.847656 124.785156 201.570312 124.628906 C 197.296875 122.285156 192.453125 121.050781 187.558594 121.050781 C 182.660156 121.050781 177.8125 122.285156 173.550781 124.628906 C 172.664062 125.113281 171.5625 124.792969 171.082031 123.910156 C 170.597656 123.03125 170.917969 121.921875 171.804688 121.4375 C 176.609375 118.804688 182.054688 117.410156 187.566406 117.410156 C 193.074219 117.410156 198.53125 118.796875 203.332031 121.4375 C 204.207031 121.921875 204.535156 123.03125 204.054688 123.910156 C 203.710938 124.515625 203.082031 124.855469 202.445312 124.855469 Z M 202.445312 124.855469 " fill-opacity="1" fill-rule="nonzero"/><path fill="#000000" d="M 194.386719 132.917969 C 194.183594 132.917969 193.972656 132.886719 193.773438 132.808594 C 189.789062 131.386719 185.324219 131.386719 181.339844 132.808594 C 180.390625 133.148438 179.351562 132.652344 179.015625 131.703125 C 178.675781 130.757812 179.171875 129.71875 180.121094 129.382812 C 182.503906 128.527344 185.003906 128.101562 187.558594 128.101562 C 190.105469 128.101562 192.605469 128.535156 195 129.382812 C 195.945312 129.71875 196.441406 130.765625 196.101562 131.703125 C 195.828125 132.457031 195.128906 132.917969 194.386719 132.917969 Z M 194.386719 132.917969 " fill-opacity="1" fill-rule="nonzero"/><path fill="#000000" d="M 187.558594 139.355469 C 186.058594 139.355469 184.832031 140.574219 184.832031 142.078125 C 184.832031 143.585938 186.058594 144.804688 187.558594 144.804688 C 189.058594 144.804688 190.285156 143.578125 190.285156 142.078125 C 190.285156 140.574219 189.058594 139.355469 187.558594 139.355469 Z M 187.558594 148.449219 C 184.050781 148.449219 181.191406 145.597656 181.191406 142.078125 C 181.191406 138.570312 184.050781 135.710938 187.558594 135.710938 C 191.070312 135.710938 193.925781 138.570312 193.925781 142.078125 C 193.925781 145.589844 191.070312 148.449219 187.558594 148.449219 Z M 187.558594 148.449219 " fill-opacity="1" fill-rule="nonzero"/></svg>