<svg xmlns="http://www.w3.org/2000/svg" xmlns:xlink="http://www.w3.org/1999/xlink" width="500" zoomAndPan="magnify" viewBox="0 0 375 374.999991" height="500" preserveAspectRatio="xMidYMid meet" version="1.0"><defs><clipPath id="b41f2a6988"><path d="M 6 0 L 369 0 L 369 374.824219 L 6 374.824219 Z M 6 0 " clip-rule="nonzero"/></clipPath></defs><rect x="-37.5" width="450" fill="#ffffff" y="-37.499999" height="449.999989" fill-opacity="1"/><rect x="-37.5" width="450" fill="#ffffff" y="-37.499999" height="449.999989" fill-opacity="1"/><g clip-path="url(#b41f2a6988)"><path fill="#000000" d="M 150.609375 174.757812 C 147.304688 174.757812 144.105469 175.300781 141.082031 176.382812 L 141.082031 167.550781 L 170.875 167.550781 C 172.21875 167.550781 173.304688 166.464844 173.304688 165.121094 L 173.304688 155.035156 C 173.304688 153.695312 172.21875 152.605469 170.875 152.605469 L 128.574219 152.605469 C 127.230469 152.605469 126.140625 153.695312 126.140625 155.035156 L 126.140625 193.191406 C 126.140625 194.535156 127.230469 195.621094 128.574219 195.621094 L 138.578125 195.621094 C 139.3125 195.621094 140.035156 195.25 140.496094 194.683594 L 140.832031 194.300781 C 143.328125 191.574219 146.894531 190.007812 150.613281 190.007812 C 157.988281 190.007812 163.984375 196.003906 163.984375 203.378906 C 163.984375 210.75 157.988281 216.753906 150.613281 216.753906 C 146.898438 216.753906 143.332031 215.1875 140.765625 212.402344 C 140.617188 212.25 140.476562 212.085938 140.226562 211.757812 C 140.097656 211.601562 139.960938 211.445312 139.769531 211.171875 C 139.488281 210.808594 139.242188 210.40625 138.824219 209.695312 C 138.128906 208.652344 136.753906 208.304688 135.644531 208.910156 L 126.511719 213.871094 C 125.347656 214.5 124.90625 215.949219 125.511719 217.125 C 125.75 217.578125 126.011719 218.019531 126.257812 218.398438 C 126.488281 218.773438 126.714844 219.128906 126.914062 219.414062 C 127.253906 219.925781 127.597656 220.414062 127.933594 220.828125 C 128.378906 221.402344 128.835938 221.949219 129.332031 222.511719 C 130.226562 223.496094 131.199219 224.449219 132.136719 225.21875 C 132.355469 225.417969 132.574219 225.589844 132.878906 225.8125 C 133.265625 226.148438 133.660156 226.425781 134.035156 226.6875 C 134.707031 227.171875 135.398438 227.621094 136.074219 228.023438 C 136.6875 228.386719 137.3125 228.710938 137.957031 229.03125 C 141.890625 230.992188 146.148438 231.984375 150.613281 231.984375 C 166.382812 231.984375 179.214844 219.152344 179.214844 203.378906 C 179.210938 187.59375 166.382812 174.757812 150.609375 174.757812 Z M 150.609375 227.125 C 146.902344 227.125 143.375 226.304688 140.117188 224.6875 C 139.585938 224.421875 139.070312 224.15625 138.554688 223.847656 C 137.992188 223.515625 137.425781 223.152344 136.839844 222.722656 C 136.550781 222.527344 136.277344 222.335938 135.992188 222.117188 C 135.917969 222.046875 135.402344 221.613281 135.320312 221.546875 C 134.472656 220.851562 133.675781 220.074219 132.960938 219.273438 C 132.554688 218.8125 132.164062 218.363281 131.75 217.820312 C 131.519531 217.535156 131.308594 217.246094 131.089844 216.910156 L 135.996094 214.246094 C 136.164062 214.464844 136.316406 214.652344 136.40625 214.746094 C 136.683594 215.128906 136.988281 215.484375 137.253906 215.75 C 140.671875 219.476562 145.542969 221.613281 150.613281 221.613281 C 160.664062 221.613281 168.84375 213.433594 168.84375 203.382812 C 168.84375 193.332031 160.664062 185.152344 150.613281 185.152344 C 145.621094 185.152344 140.824219 187.222656 137.484375 190.765625 L 131.003906 190.765625 L 131.003906 157.46875 L 168.449219 157.46875 L 168.449219 162.695312 L 138.65625 162.695312 C 137.3125 162.695312 136.226562 163.78125 136.226562 165.125 L 136.226562 180.097656 C 136.226562 180.9375 136.851562 181.617188 137.570312 182.058594 C 138.28125 182.5 139.367188 182.4375 140.121094 182.0625 C 143.382812 180.4375 146.914062 179.617188 150.613281 179.617188 C 163.707031 179.617188 174.359375 190.277344 174.359375 203.382812 C 174.355469 216.472656 163.703125 227.125 150.609375 227.125 Z M 248.714844 187.230469 L 222.414062 187.230469 C 221.070312 187.230469 219.984375 188.316406 219.984375 189.660156 L 219.984375 201.730469 C 219.984375 203.074219 221.070312 204.160156 222.414062 204.160156 L 234.21875 204.160156 L 234.21875 211.371094 C 230.425781 213.949219 226.035156 215.304688 221.445312 215.304688 C 208.730469 215.304688 198.382812 204.988281 198.382812 192.308594 C 198.382812 179.574219 208.730469 169.214844 221.445312 169.214844 C 226.671875 169.214844 231.597656 170.945312 235.683594 174.207031 C 236.539062 174.882812 237.726562 174.90625 238.613281 174.289062 L 248.484375 167.246094 C 249.074219 166.824219 249.445312 166.167969 249.5 165.4375 C 249.550781 164.71875 249.277344 164.011719 248.75 163.511719 C 241.359375 156.457031 231.660156 152.570312 221.449219 152.570312 C 199.554688 152.570312 181.742188 170.394531 181.742188 192.304688 C 181.742188 214.164062 199.554688 231.945312 221.449219 231.945312 C 232.421875 231.945312 243.011719 227.328125 250.5 219.285156 C 250.917969 218.835938 251.148438 218.242188 251.148438 217.628906 L 251.148438 189.660156 C 251.140625 188.3125 250.058594 187.230469 248.714844 187.230469 Z M 246.285156 216.652344 C 239.761719 223.289062 230.761719 227.082031 221.445312 227.082031 C 202.230469 227.082031 186.597656 211.476562 186.597656 192.300781 C 186.597656 173.070312 202.230469 157.425781 221.445312 157.425781 C 229.40625 157.425781 237.015625 160.121094 243.164062 165.066406 L 237.238281 169.292969 C 232.589844 166.054688 227.167969 164.351562 221.445312 164.351562 C 206.050781 164.351562 193.523438 176.890625 193.523438 192.300781 C 193.523438 207.65625 206.050781 220.15625 221.445312 220.15625 C 227.496094 220.15625 233.257812 218.21875 238.113281 214.558594 C 238.722656 214.09375 239.078125 213.378906 239.078125 212.617188 L 239.078125 201.726562 C 239.078125 200.386719 237.992188 199.296875 236.648438 199.296875 L 224.84375 199.296875 L 224.84375 192.085938 L 246.289062 192.085938 L 246.289062 216.652344 Z M 299.746094 134.832031 C 330.265625 164.992188 330.554688 214.359375 300.394531 244.878906 C 299.921875 245.359375 299.292969 245.597656 298.667969 245.597656 C 298.050781 245.597656 297.433594 245.367188 296.960938 244.898438 C 296.007812 243.953125 295.996094 242.414062 296.941406 241.464844 C 325.214844 212.851562 324.9375 166.566406 296.332031 138.285156 C 295.378906 137.339844 295.367188 135.804688 296.3125 134.851562 C 297.253906 133.898438 298.792969 133.886719 299.746094 134.832031 Z M 286.152344 230.796875 C 285.675781 231.277344 285.046875 231.519531 284.421875 231.519531 C 283.808594 231.519531 283.1875 231.285156 282.714844 230.816406 C 281.761719 229.871094 281.75 228.335938 282.695312 227.382812 C 303.203125 206.625 303.007812 173.046875 282.25 152.53125 C 281.296875 151.585938 281.285156 150.050781 282.230469 149.097656 C 283.175781 148.144531 284.714844 148.132812 285.667969 149.078125 C 308.332031 171.472656 308.546875 208.132812 286.152344 230.796875 Z M 271.90625 216.71875 C 271.429688 217.199219 270.800781 217.441406 270.175781 217.441406 C 269.5625 217.441406 268.941406 217.207031 268.46875 216.738281 C 267.515625 215.792969 267.507812 214.257812 268.449219 213.304688 C 281.199219 200.402344 281.078125 179.527344 268.175781 166.78125 C 267.226562 165.835938 267.214844 164.300781 268.160156 163.347656 C 269.101562 162.394531 270.640625 162.378906 271.59375 163.328125 C 286.394531 177.960938 286.535156 201.910156 271.90625 216.71875 Z M 78.089844 241.464844 C 79.035156 242.414062 79.023438 243.953125 78.074219 244.898438 C 77.597656 245.367188 76.980469 245.597656 76.367188 245.597656 C 75.738281 245.597656 75.113281 245.355469 74.636719 244.878906 C 44.476562 214.359375 44.769531 164.992188 75.285156 134.832031 C 76.242188 133.886719 77.777344 133.898438 78.722656 134.851562 C 79.667969 135.804688 79.65625 137.339844 78.703125 138.285156 C 50.089844 166.5625 49.816406 212.851562 78.089844 241.464844 Z M 92.335938 227.382812 C 93.28125 228.335938 93.269531 229.871094 92.320312 230.816406 C 91.84375 231.285156 91.226562 231.519531 90.613281 231.519531 C 89.984375 231.519531 89.359375 231.273438 88.882812 230.796875 C 66.488281 208.132812 66.703125 171.472656 89.363281 149.078125 C 90.320312 148.132812 91.851562 148.144531 92.796875 149.097656 C 93.742188 150.050781 93.730469 151.585938 92.78125 152.53125 C 72.023438 173.046875 71.824219 206.625 92.335938 227.382812 Z M 106.859375 166.78125 C 100.621094 172.949219 97.15625 181.1875 97.101562 189.988281 C 97.050781 198.785156 100.417969 207.066406 106.582031 213.304688 C 107.527344 214.257812 107.515625 215.792969 106.5625 216.738281 C 106.089844 217.207031 105.472656 217.441406 104.859375 217.441406 C 104.230469 217.441406 103.605469 217.195312 103.128906 216.71875 C 96.050781 209.558594 92.183594 200.050781 92.242188 189.957031 C 92.304688 179.863281 96.28125 170.402344 103.441406 163.328125 C 104.398438 162.378906 105.929688 162.394531 106.875 163.347656 C 107.820312 164.300781 107.8125 165.835938 106.859375 166.78125 Z M 336.882812 122.132812 L 336.882812 96.261719 C 341.59375 95.164062 345.125 90.953125 345.125 85.917969 C 345.125 80.042969 340.347656 75.265625 334.480469 75.265625 C 328.609375 75.265625 323.832031 80.042969 323.832031 85.917969 C 323.832031 90.9375 327.34375 95.132812 332.027344 96.246094 L 332.027344 118.691406 C 323.484375 113.164062 313.855469 109.207031 303.507812 107.246094 L 303.488281 82.351562 C 309.832031 81.207031 314.660156 75.675781 314.660156 69.011719 C 314.660156 61.519531 308.570312 55.429688 301.078125 55.429688 C 293.585938 55.429688 287.496094 61.519531 287.496094 69.011719 C 287.496094 75.664062 292.308594 81.1875 298.632812 82.347656 L 298.648438 106.503906 C 295.316406 106.082031 291.945312 105.792969 288.496094 105.792969 C 283.089844 105.792969 277.765625 106.390625 272.539062 107.453125 L 272.539062 42.835938 C 272.539062 36.371094 277.410156 31.085938 283.648438 30.324219 C 284.9375 36.410156 290.347656 40.996094 296.8125 40.996094 C 304.234375 40.996094 310.269531 34.953125 310.269531 27.535156 C 310.269531 20.121094 304.230469 14.078125 296.8125 14.078125 C 290.097656 14.078125 284.5625 19.039062 283.558594 25.472656 C 274.679688 26.300781 267.679688 33.722656 267.679688 42.835938 L 267.679688 108.550781 C 265.667969 109.089844 263.671875 109.691406 261.703125 110.390625 C 252.332031 75.15625 220.765625 50.789062 184.011719 50.789062 C 148.269531 50.789062 116.898438 74.355469 106.867188 108.402344 C 103.160156 107.421875 99.359375 106.746094 95.507812 106.320312 L 95.507812 77.664062 C 101.90625 76.519531 106.789062 70.941406 106.789062 64.222656 C 106.789062 56.675781 100.652344 50.535156 93.105469 50.535156 C 85.5625 50.535156 79.421875 56.675781 79.421875 64.222656 C 79.421875 70.929688 84.277344 76.496094 90.652344 77.660156 L 90.652344 105.925781 C 89.289062 105.859375 87.917969 105.796875 86.542969 105.796875 C 78.792969 105.796875 71.320312 106.957031 64.222656 109.011719 L 64.222656 32.511719 C 64.222656 24.285156 70.890625 17.59375 79.089844 17.59375 L 122.890625 17.59375 C 124.15625 24.652344 130.308594 30.035156 137.722656 30.035156 C 146.046875 30.035156 152.824219 23.257812 152.824219 14.933594 C 152.824219 6.601562 146.046875 -0.175781 137.722656 -0.175781 C 130.148438 -0.175781 123.917969 5.449219 122.84375 12.734375 L 79.085938 12.734375 C 68.210938 12.734375 59.359375 21.609375 59.359375 32.507812 L 59.359375 110.046875 C 59.359375 110.238281 59.429688 110.402344 59.46875 110.582031 C 49.507812 114.160156 40.46875 119.636719 32.757812 126.597656 L 32.757812 98.953125 C 37.582031 97.847656 41.199219 93.542969 41.199219 88.390625 C 41.199219 82.410156 36.332031 77.542969 30.351562 77.542969 C 24.371094 77.542969 19.503906 82.410156 19.503906 88.390625 C 19.503906 93.527344 23.101562 97.824219 27.90625 98.941406 L 27.90625 131.363281 C 14.453125 145.746094 6.140625 165 6.140625 186.199219 C 6.140625 230.535156 42.210938 266.601562 86.542969 266.601562 L 104.636719 266.601562 L 104.636719 293.648438 C 98.238281 294.792969 93.355469 300.367188 93.355469 307.089844 C 93.355469 314.636719 99.496094 320.777344 107.039062 320.777344 C 114.585938 320.777344 120.722656 314.636719 120.722656 307.089844 C 120.722656 300.382812 115.867188 294.8125 109.492188 293.652344 L 109.492188 266.601562 L 135.921875 266.601562 L 135.921875 342.140625 C 135.921875 349.871094 130.011719 356.171875 122.496094 356.910156 C 121.175781 349.929688 115.042969 344.621094 107.679688 344.621094 C 99.351562 344.621094 92.578125 351.398438 92.578125 359.722656 C 92.578125 368.046875 99.351562 374.824219 107.679688 374.824219 C 115.308594 374.824219 121.566406 369.117188 122.578125 361.757812 C 132.734375 360.96875 140.78125 352.519531 140.78125 342.140625 L 140.78125 266.601562 L 165.121094 266.601562 L 165.121094 290.582031 C 161.101562 291.738281 158.132812 295.410156 158.132812 299.800781 C 158.132812 305.117188 162.457031 309.4375 167.769531 309.4375 C 173.082031 309.4375 177.40625 305.117188 177.40625 299.800781 C 177.40625 295.253906 174.226562 291.449219 169.984375 290.445312 L 169.984375 266.601562 L 201.804688 266.601562 L 201.804688 307.210938 C 196.074219 308.335938 191.734375 313.382812 191.734375 319.4375 C 191.734375 326.308594 197.332031 331.90625 204.207031 331.90625 C 211.082031 331.90625 216.675781 326.308594 216.675781 319.4375 C 216.675781 313.402344 212.363281 308.359375 206.660156 307.214844 L 206.660156 266.601562 L 234.253906 266.601562 L 234.253906 318.484375 C 234.253906 328.839844 242.304688 337.265625 252.464844 338.054688 C 253.460938 345.425781 259.726562 351.144531 267.363281 351.144531 C 275.6875 351.144531 282.464844 344.367188 282.464844 336.042969 C 282.464844 327.714844 275.6875 320.941406 267.363281 320.941406 C 260.007812 320.941406 253.882812 326.230469 252.546875 333.207031 C 245.027344 332.476562 239.109375 326.195312 239.109375 318.488281 L 239.109375 266.601562 L 288.496094 266.601562 C 332.832031 266.601562 368.898438 230.535156 368.898438 186.199219 C 368.894531 160.039062 356.285156 136.832031 336.882812 122.132812 Z M 328.6875 85.917969 C 328.6875 82.726562 331.285156 80.121094 334.480469 80.121094 C 337.671875 80.121094 340.269531 82.722656 340.269531 85.917969 C 340.269531 89.113281 337.675781 91.707031 334.480469 91.707031 C 331.285156 91.707031 328.6875 89.109375 328.6875 85.917969 Z M 292.351562 69.011719 C 292.351562 64.199219 296.269531 60.285156 301.078125 60.285156 C 305.890625 60.285156 309.804688 64.199219 309.804688 69.011719 C 309.804688 73.824219 305.890625 77.738281 301.078125 77.738281 C 296.269531 77.738281 292.351562 73.824219 292.351562 69.011719 Z M 296.808594 18.933594 C 301.550781 18.933594 305.410156 22.792969 305.410156 27.535156 C 305.410156 32.28125 301.550781 36.140625 296.808594 36.140625 C 292.0625 36.140625 288.207031 32.28125 288.207031 27.535156 C 288.207031 22.792969 292.0625 18.933594 296.808594 18.933594 Z M 84.273438 64.21875 C 84.273438 59.351562 88.234375 55.386719 93.097656 55.386719 C 97.964844 55.386719 101.925781 59.347656 101.925781 64.21875 C 101.925781 69.089844 97.964844 73.042969 93.097656 73.042969 C 88.234375 73.046875 84.273438 69.085938 84.273438 64.21875 Z M 137.722656 4.683594 C 143.371094 4.683594 147.96875 9.28125 147.96875 14.933594 C 147.96875 20.582031 143.375 25.179688 137.722656 25.179688 C 132.074219 25.179688 127.476562 20.582031 127.476562 14.933594 C 127.476562 9.28125 132.070312 4.683594 137.722656 4.683594 Z M 115.863281 307.089844 C 115.863281 311.957031 111.902344 315.914062 107.039062 315.914062 C 102.171875 315.914062 98.214844 311.957031 98.214844 307.089844 C 98.214844 302.21875 102.171875 298.265625 107.039062 298.265625 C 111.902344 298.265625 115.863281 302.21875 115.863281 307.089844 Z M 107.675781 369.964844 C 102.027344 369.964844 97.429688 365.367188 97.429688 359.71875 C 97.429688 354.070312 102.023438 349.472656 107.675781 349.472656 C 113.324219 349.472656 117.917969 354.070312 117.917969 359.71875 C 117.917969 365.367188 113.324219 369.964844 107.675781 369.964844 Z M 172.542969 299.800781 C 172.542969 302.433594 170.402344 304.578125 167.765625 304.578125 C 165.128906 304.578125 162.984375 302.433594 162.984375 299.800781 C 162.984375 297.167969 165.128906 295.023438 167.765625 295.023438 C 170.402344 295.023438 172.542969 297.164062 172.542969 299.800781 Z M 211.8125 319.4375 C 211.8125 323.628906 208.394531 327.046875 204.203125 327.046875 C 200.003906 327.046875 196.589844 323.628906 196.589844 319.4375 C 196.589844 315.246094 200.003906 311.828125 204.203125 311.828125 C 208.394531 311.828125 211.8125 315.246094 211.8125 319.4375 Z M 267.359375 325.796875 C 273.007812 325.796875 277.605469 330.394531 277.605469 336.042969 C 277.605469 341.6875 273.007812 346.285156 267.359375 346.285156 C 261.710938 346.285156 257.113281 341.6875 257.113281 336.042969 C 257.113281 330.394531 261.710938 325.796875 267.359375 325.796875 Z M 24.359375 88.390625 C 24.359375 85.089844 27.046875 82.398438 30.351562 82.398438 C 33.65625 82.398438 36.34375 85.089844 36.34375 88.390625 C 36.34375 91.695312 33.65625 94.382812 30.351562 94.382812 C 27.046875 94.382812 24.359375 91.695312 24.359375 88.390625 Z M 288.496094 261.746094 L 86.539062 261.746094 C 44.886719 261.746094 11 227.859375 11 186.203125 C 11 144.539062 44.886719 110.652344 86.539062 110.652344 C 93.851562 110.652344 101.027344 111.6875 107.859375 113.730469 C 108.488281 113.914062 109.171875 113.84375 109.746094 113.515625 C 110.316406 113.195312 110.734375 112.652344 110.902344 112.015625 C 119.585938 78.824219 149.652344 55.648438 184.007812 55.648438 C 219.417969 55.648438 249.695312 79.710938 257.636719 114.164062 C 257.796875 114.851562 258.246094 115.441406 258.875 115.769531 C 259.5 116.097656 260.230469 116.140625 260.894531 115.878906 C 269.691406 112.410156 278.976562 110.652344 288.496094 110.652344 C 330.148438 110.652344 364.035156 144.539062 364.035156 186.203125 C 364.039062 227.855469 330.148438 261.746094 288.496094 261.746094 Z M 288.496094 261.746094 " fill-opacity="1" fill-rule="nonzero"/></g></svg>