<svg xmlns="http://www.w3.org/2000/svg" xmlns:xlink="http://www.w3.org/1999/xlink" width="500" zoomAndPan="magnify" viewBox="0 0 375 299.999988" height="400" preserveAspectRatio="xMidYMid meet" version="1.0"><defs><clipPath id="f690b9b934"><path d="M 2.152344 45.472656 L 175.042969 45.472656 L 175.042969 299.949219 L 2.152344 299.949219 Z M 2.152344 45.472656 " clip-rule="nonzero"/></clipPath><clipPath id="f9eb3393f0"><path d="M 157.007812 58.042969 L 372.5625 58.042969 L 372.5625 299.949219 L 157.007812 299.949219 Z M 157.007812 58.042969 " clip-rule="nonzero"/></clipPath></defs><path stroke-linecap="round" transform="matrix(0.0116344, 0, 0, -0.0116396, 2.153873, 299.95606)" fill="none" stroke-linejoin="round" d="M 11499.26431 3336.105952 L 3336.539927 3336.105952 L 3336.539927 13467.503283 L 11499.26431 13467.503283 Z M 11499.26431 3336.105952 " stroke="#333333" stroke-width="552.08899" stroke-opacity="1" stroke-miterlimit="10"/><path stroke-linecap="round" transform="matrix(0.0116344, 0, 0, -0.0116396, 2.153873, 299.95606)" fill="none" stroke-linejoin="round" d="M 11499.935807 10106.47959 L 3336.204178 10106.47959 " stroke="#333333" stroke-width="552.08899" stroke-opacity="1" stroke-miterlimit="10"/><path stroke-linecap="round" transform="matrix(0.0116344, 0, 0, -0.0116396, 2.153873, 299.95606)" fill="none" stroke-linejoin="round" d="M 11499.935807 6696.794046 L 3336.204178 6696.794046 " stroke="#333333" stroke-width="552.08899" stroke-opacity="1" stroke-miterlimit="10"/><path stroke-linecap="round" transform="matrix(0.0116344, 0, 0, -0.0116396, 2.153873, 299.95606)" fill="none" stroke-linejoin="round" d="M 5977.204096 3336.105952 L 5977.204096 6696.794046 " stroke="#333333" stroke-width="552.08899" stroke-opacity="1" stroke-miterlimit="10"/><path stroke-linecap="round" transform="matrix(0.0116344, 0, 0, -0.0116396, 2.153873, 299.95606)" fill="none" stroke-linejoin="round" d="M 5977.204096 10106.47959 L 5977.204096 13467.167684 " stroke="#333333" stroke-width="552.08899" stroke-opacity="1" stroke-miterlimit="10"/><path stroke-linecap="round" transform="matrix(0.0116344, 0, 0, -0.0116396, 2.153873, 299.95606)" fill="none" stroke-linejoin="round" d="M 8858.264392 3336.105952 L 8858.264392 6696.794046 " stroke="#333333" stroke-width="552.08899" stroke-opacity="1" stroke-miterlimit="10"/><path stroke-linecap="round" transform="matrix(0.0116344, 0, 0, -0.0116396, 2.153873, 299.95606)" fill="none" stroke-linejoin="round" d="M 8858.264392 10106.47959 L 8858.264392 13467.167684 " stroke="#333333" stroke-width="552.08899" stroke-opacity="1" stroke-miterlimit="10"/><g clip-path="url(#f690b9b934)"><path stroke-linecap="round" transform="matrix(0.0154017, 0, 0, -0.0154086, 2.153873, 299.95606)" fill="none" stroke-linejoin="round" d="M 11016.609815 11500.501281 L 11016.609815 1312.621257 C 11016.609815 702.925299 10522.29469 208.577225 9912.833815 208.577225 L 1312.410065 208.577225 C 702.695565 208.577225 208.634065 702.925299 208.634065 1312.621257 L 208.634065 15196.196779 C 208.634065 15805.639226 702.695565 16299.987299 1312.410065 16299.987299 L 6217.26394 16299.987299 C 6480.52669 16299.987299 6732.883565 16195.286913 6919.044315 16009.209227 L 10725.955565 12202.475546 C 10912.116315 12016.144349 11016.609815 11763.900075 11016.609815 11500.501281 Z M 11016.609815 11500.501281 " stroke="#333333" stroke-width="417.05099" stroke-opacity="1" stroke-miterlimit="10"/></g><path stroke-linecap="round" transform="matrix(0.0181998, 0, 0, -0.0182079, 2.153873, 299.95606)" fill="none" stroke-linejoin="round" d="M 6910.207127 16299.976317 C 8523.595707 16299.976317 9887.581928 15207.343568 10300.319222 13723.396833 " stroke="#333333" stroke-width="352.939" stroke-opacity="1" stroke-miterlimit="10"/><path stroke-linecap="round" transform="matrix(0.0170887, 0, 0, -0.0170963, 2.153873, 299.95606)" fill="none" stroke-linejoin="round" d="M 7359.50224 16300.072191 C 8615.131432 16300.072191 9670.975459 15434.799014 9965.167115 14270.21032 " stroke="#333333" stroke-width="375.88101" stroke-opacity="1" stroke-miterlimit="10"/><path stroke-linecap="round" transform="matrix(0.0159776, 0, 0, -0.0159847, 2.153873, 299.95606)" fill="none" stroke-linejoin="round" d="M 7871.04212 16299.937026 C 8719.154473 16299.937026 9425.466548 15693.64485 9580.46892 14890.875886 " stroke="#333333" stroke-width="402.013" stroke-opacity="1" stroke-miterlimit="10"/><g clip-path="url(#f9eb3393f0)"><path stroke-linecap="round" transform="matrix(0.0225278, 0, 0, -0.0225378, 2.153873, 299.95606)" fill="none" stroke-linejoin="round" d="M 7019.740398 8655.890967 C 7975.852021 9836.37166 9437.762991 10590.139174 11076.365609 10590.139174 C 13961.86679 10590.139174 16299.953319 8251.016073 16299.953319 5366.455776 C 16299.953319 2481.722159 13961.86679 142.772378 11076.365609 142.772378 C 9708.609265 142.772378 8463.444673 668.277805 7531.955439 1529.503553 " stroke="#333333" stroke-width="285.13101" stroke-opacity="1" stroke-miterlimit="10"/></g><path stroke-linecap="round" transform="matrix(0.0221078, 0, 0, -0.0221176, 2.153873, 299.95606)" fill="none" stroke-linejoin="round" d="M 10910.442041 10777.377634 L 10910.442041 9552.217069 C 10910.442041 9265.575062 10677.916287 9032.976466 10391.322995 9032.976466 C 10248.026348 9032.976466 10118.334933 8975.047582 10024.33516 8881.089759 C 9930.335387 8787.131936 9872.203948 8657.321785 9872.203948 8513.912475 L 9872.203948 8011.273443 C 9872.203948 7724.631437 10104.729702 7492.209452 10391.322995 7492.209452 L 10614.130727 7492.209452 C 10900.724019 7492.209452 11133.249773 7259.787468 11133.249773 6972.085787 L 11133.249773 6823.907942 C 11133.249773 6537.265936 11365.598835 6304.843951 11652.368819 6304.843951 L 12023.243863 6304.843951 C 12309.837155 6304.843951 12542.362909 6072.421967 12542.362909 5785.779961 L 12542.362909 4302.058769 C 12542.362909 4015.416763 12774.711971 3782.994779 13061.481955 3782.994779 L 13309.379852 3782.994779 C 13595.973145 3782.994779 13828.498898 4015.416763 13828.498898 4302.058769 L 13828.498898 4798.869591 C 13828.498898 5085.68821 14060.847961 5317.933581 14347.617945 5317.933581 L 14842.530282 5317.933581 C 15129.123575 5317.933581 15361.472637 5550.355565 15361.472637 5838.057246 L 15361.472637 6739.663803 C 15361.472637 7026.482422 15593.998391 7258.904406 15880.591683 7258.904406 L 16300.056835 7258.904406 " stroke="#333333" stroke-width="290.53601" stroke-opacity="1" stroke-miterlimit="10"/><path stroke-linecap="round" transform="matrix(0.016721, 0, 0, -0.0167285, 2.153873, 299.95606)" fill="none" stroke-linejoin="round" d="M 10147.362431 5278.17677 L 10490.540131 5278.17677 C 10744.010387 5278.17677 10948.889109 5483.19757 10948.889109 5735.387164 L 10948.889109 7024.823221 C 10948.889109 7277.246325 11153.767832 7482.033616 11406.070022 7482.033616 L 13052.809036 7482.033616 C 13305.111226 7482.033616 13509.756335 7277.246325 13509.756335 7024.823221 L 13509.756335 6134.920865 C 13509.756335 5881.330217 13305.111226 5676.542926 13052.809036 5676.542926 C 12925.957102 5676.542926 12810.785825 5625.170971 12728.787613 5542.041808 C 12645.387722 5460.08019 12594.226445 5344.96031 12594.226445 5219.332531 L 12594.226445 4477.941825 C 12594.226445 4225.75223 12799.105168 4020.964939 13052.809036 4020.964939 L 14142.380715 4020.964939 C 14394.682905 4020.964939 14599.561627 3815.944139 14599.561627 3562.587 L 14599.561627 2952.895304 C 14599.561627 2699.538165 14394.682905 2494.517365 14142.380715 2494.517365 L 13357.440569 2494.517365 C 13105.138379 2494.517365 12900.259657 2289.730074 12900.259657 2037.30697 L 12900.259657 1819.676691 C 12900.259657 1566.319552 13105.138379 1361.298752 13357.440569 1361.298752 L 15842.850751 1361.298752 C 16095.152941 1361.298752 16300.031664 1156.51146 16300.031664 904.088357 L 16300.031664 328.02194 " stroke="#333333" stroke-width="384.13501" stroke-opacity="1" stroke-miterlimit="10"/></svg>