<svg xmlns="http://www.w3.org/2000/svg" xmlns:xlink="http://www.w3.org/1999/xlink" width="500" zoomAndPan="magnify" viewBox="0 0 375 374.999991" height="500" preserveAspectRatio="xMidYMid meet" version="1.0"><defs><clipPath id="37846004cc"><path d="M 302.527344 70.460938 L 358.359375 70.460938 L 358.359375 285.828125 L 302.527344 285.828125 Z M 302.527344 70.460938 " clip-rule="nonzero"/></clipPath><clipPath id="1678b4d1e9"><path d="M 16.363281 0 L 269 0 L 269 374.914062 L 16.363281 374.914062 Z M 16.363281 0 " clip-rule="nonzero"/></clipPath></defs><path fill="#333333" d="M 253.851562 235.105469 C 254.484375 235.742188 255.316406 236.058594 256.148438 236.058594 C 256.976562 236.058594 257.808594 235.742188 258.445312 235.105469 C 295.742188 197.789062 296.390625 155.632812 260.21875 119.445312 C 258.953125 118.175781 256.894531 118.175781 255.628906 119.445312 C 254.355469 120.714844 254.355469 122.773438 255.628906 124.042969 C 289.367188 157.796875 288.734375 195.609375 253.851562 230.511719 C 252.582031 231.78125 252.582031 233.839844 253.851562 235.105469 " fill-opacity="1" fill-rule="nonzero"/><path fill="#333333" d="M 279.835938 259.757812 C 280.667969 259.757812 281.496094 259.441406 282.132812 258.808594 C 332.671875 208.242188 333.671875 143.898438 284.679688 94.882812 C 283.410156 93.613281 281.355469 93.613281 280.085938 94.882812 C 278.816406 96.152344 278.816406 98.210938 280.085938 99.480469 C 326.289062 145.703125 325.289062 206.441406 277.539062 254.210938 C 276.269531 255.480469 276.269531 257.539062 277.539062 258.808594 C 278.171875 259.441406 279.003906 259.757812 279.835938 259.757812 " fill-opacity="1" fill-rule="nonzero"/><g clip-path="url(#37846004cc)"><path fill="#333333" d="M 311.445312 71.476562 C 310.175781 70.207031 308.117188 70.207031 306.847656 71.476562 C 305.582031 72.742188 305.582031 74.800781 306.847656 76.070312 C 367.808594 137.054688 366.496094 217.179688 303.511719 280.195312 C 302.246094 281.464844 302.246094 283.523438 303.511719 284.789062 C 304.148438 285.425781 304.976562 285.742188 305.808594 285.742188 C 306.640625 285.742188 307.472656 285.425781 308.105469 284.789062 C 373.878906 218.984375 375.191406 135.25 311.445312 71.476562 " fill-opacity="1" fill-rule="nonzero"/></g><g clip-path="url(#1678b4d1e9)"><path fill="#333333" d="M 37.648438 127.589844 C 40.777344 123.023438 44.378906 118.714844 48.351562 114.789062 C 53.15625 110.03125 59.417969 106.722656 66.464844 105.226562 L 113.484375 95.226562 C 113.707031 95.175781 113.976562 95.164062 114.277344 95.160156 C 114.328125 95.160156 114.375 95.160156 114.425781 95.160156 C 117.394531 95.160156 120.183594 96.515625 122.09375 98.898438 C 124.15625 101.472656 124.902344 104.773438 124.144531 107.964844 C 123.941406 108.8125 123.789062 109.59375 123.667969 110.289062 L 114.542969 110.105469 C 112.683594 110.058594 111.265625 111.492188 111.230469 113.285156 C 111.191406 115.078125 112.617188 116.566406 114.410156 116.601562 L 126.441406 116.847656 C 126.464844 116.847656 126.484375 116.847656 126.507812 116.847656 C 126.511719 116.847656 126.511719 116.847656 126.515625 116.847656 L 181.167969 116.75 C 181.179688 116.75 181.1875 116.75 181.195312 116.75 C 185.800781 116.75 190.074219 118.488281 193.226562 121.640625 C 196.125 124.539062 197.714844 128.328125 197.707031 132.3125 C 197.695312 140.917969 190.246094 147.925781 181.101562 147.941406 C 181.097656 147.941406 181.097656 147.941406 181.09375 147.941406 L 165.242188 147.964844 C 163.449219 147.964844 161.996094 149.421875 162 151.214844 C 162 153.011719 163.453125 154.460938 165.246094 154.460938 C 165.246094 154.460938 165.25 154.460938 165.25 154.460938 L 181.148438 154.441406 C 185.75 154.441406 190.019531 156.179688 193.167969 159.332031 C 196.066406 162.230469 197.65625 166.015625 197.648438 170 C 197.636719 178.605469 190.191406 185.613281 181.050781 185.628906 L 165.183594 185.652344 C 163.390625 185.65625 161.9375 187.113281 161.941406 188.90625 C 161.941406 190.703125 163.394531 192.152344 165.1875 192.152344 C 165.1875 192.152344 165.191406 192.152344 165.191406 192.152344 L 177.082031 192.136719 C 177.082031 192.136719 177.085938 192.136719 177.085938 192.136719 C 177.09375 192.136719 177.101562 192.136719 177.113281 192.136719 C 181.71875 192.136719 185.992188 193.871094 189.144531 197.027344 C 192.039062 199.925781 193.632812 203.714844 193.625 207.699219 C 193.613281 216.300781 186.164062 223.308594 177.023438 223.328125 L 173.980469 223.332031 L 173.0625 223.332031 C 173.058594 223.332031 173.054688 223.332031 173.050781 223.332031 L 165.125 223.34375 C 163.332031 223.347656 161.878906 224.804688 161.878906 226.597656 C 161.882812 228.390625 163.335938 229.84375 165.128906 229.84375 C 165.128906 229.84375 165.132812 229.84375 165.132812 229.84375 L 173.089844 229.832031 C 177.695312 229.832031 181.96875 231.570312 185.121094 234.722656 C 188.019531 237.621094 189.605469 241.410156 189.601562 245.394531 C 189.585938 254 182.136719 261.011719 172.992188 261.023438 L 113.949219 261.109375 C 113.898438 261.109375 113.855469 261.109375 113.804688 261.109375 C 88.59375 261.109375 65.164062 251.558594 47.828125 234.214844 C 31.71875 218.097656 22.867188 196.960938 22.898438 174.707031 C 22.925781 157.914062 28.027344 141.617188 37.648438 127.589844 Z M 138.195312 82.496094 C 139.148438 78.886719 146.953125 55.347656 147.988281 52.75 L 154.414062 34.96875 C 156.058594 30.421875 157.871094 26.570312 159.953125 23.199219 C 167.347656 11.222656 175.925781 6.378906 189.410156 6.609375 C 195.535156 6.691406 201.835938 8.058594 208.140625 10.664062 L 233.675781 21.21875 C 246.355469 25.804688 247.664062 39.929688 243.339844 51.894531 L 225.953125 100 C 221.40625 112.578125 207.488281 119.121094 194.917969 114.613281 C 190.976562 111.792969 186.230469 110.25 181.195312 110.25 C 181.183594 110.25 181.171875 110.25 181.160156 110.25 L 131.71875 110.339844 C 133.746094 99.8125 136.011719 90.4375 138.195312 82.496094 Z M 192.738281 256.796875 C 193.019531 256.691406 193.296875 256.566406 193.554688 256.402344 L 193.824219 256.226562 C 199.800781 252.390625 206.914062 251.109375 213.855469 252.628906 C 220.792969 254.140625 226.726562 258.269531 230.5625 264.25 L 254.769531 301.984375 C 262.3125 313.53125 268.1875 329.476562 253.449219 339.789062 L 215.789062 363.960938 C 203.449219 371.851562 191.667969 369.1875 180.640625 355.894531 C 180.507812 355.75 166.757812 340.917969 148.972656 302.265625 C 144.089844 290.628906 140.109375 279.035156 136.878906 267.574219 L 173.003906 267.523438 C 181.363281 267.511719 188.683594 263.203125 192.738281 256.796875 Z M 113.804688 267.605469 C 113.855469 267.605469 113.90625 267.605469 113.957031 267.605469 L 130.148438 267.582031 C 133.539062 279.878906 137.753906 292.328125 143.003906 304.828125 C 143.015625 304.863281 143.03125 304.898438 143.046875 304.929688 C 161.371094 344.765625 175.339844 359.746094 175.78125 360.203125 C 183.847656 369.933594 192.890625 374.875 202.222656 374.875 C 207.859375 374.875 213.601562 373.070312 219.292969 369.433594 L 257.0625 345.183594 C 271.757812 334.910156 272.902344 317.867188 260.21875 298.453125 L 236.03125 260.738281 C 231.257812 253.300781 223.871094 248.164062 215.242188 246.277344 C 208.691406 244.851562 202.023438 245.445312 195.9375 247.890625 C 196.035156 247.074219 196.097656 246.246094 196.097656 245.40625 C 196.105469 239.679688 193.839844 234.257812 189.714844 230.128906 C 189.074219 229.488281 188.386719 228.902344 187.683594 228.347656 C 187.625 228.023438 187.574219 227.699219 187.515625 227.378906 C 194.976562 223.703125 200.109375 216.265625 200.121094 207.707031 C 200.128906 201.984375 197.863281 196.558594 193.738281 192.433594 C 192.847656 191.539062 191.894531 190.730469 190.886719 190.003906 C 198.703125 186.453125 204.132812 178.824219 204.144531 170.011719 C 204.15625 164.289062 201.890625 158.863281 197.765625 154.738281 C 196.371094 153.34375 194.824219 152.148438 193.15625 151.164062 C 199.765625 147.269531 204.191406 140.277344 204.203125 132.320312 C 204.210938 128.867188 203.371094 125.527344 201.8125 122.507812 C 214.878906 123.046875 227.386719 115.15625 232.0625 102.210938 L 249.453125 54.101562 C 255.867188 36.351562 250.289062 20.316406 236.019531 15.160156 L 210.625 4.660156 C 203.558594 1.738281 196.449219 0.207031 189.5 0.109375 C 173.851562 -0.0429688 162.964844 5.953125 154.425781 19.78125 C 152.105469 23.539062 150.101562 27.785156 148.304688 32.757812 L 141.917969 50.4375 C 140.816406 53.183594 132.917969 77.035156 131.921875 80.800781 C 130.648438 85.441406 129.34375 90.578125 128.078125 96.117188 C 127.789062 95.679688 127.496094 95.246094 127.164062 94.835938 C 123.957031 90.835938 119.261719 88.605469 114.175781 88.660156 C 113.398438 88.671875 112.730469 88.742188 112.132812 88.867188 L 65.113281 98.871094 C 56.847656 100.628906 49.472656 104.535156 43.78125 110.167969 C 39.519531 114.386719 35.652344 119.011719 32.292969 123.910156 C 21.925781 139.027344 16.433594 156.589844 16.402344 174.695312 C 16.367188 198.691406 25.894531 221.460938 43.234375 238.808594 C 61.796875 257.382812 86.855469 267.605469 113.804688 267.605469 " fill-opacity="1" fill-rule="nonzero"/></g></svg>