<svg xmlns="http://www.w3.org/2000/svg" xmlns:xlink="http://www.w3.org/1999/xlink" width="256" zoomAndPan="magnify" viewBox="0 0 192 191.999996" height="256" preserveAspectRatio="xMidYMid meet" version="1.0"><defs><g/></defs><rect x="-19.2" width="230.4" fill="#ffffff" y="-19.2" height="230.399995" fill-opacity="1"/><rect x="-19.2" width="230.4" fill="#ffffff" y="-19.2" height="230.399995" fill-opacity="1"/><rect x="-19.2" width="230.4" fill="#db5656" y="-19.2" height="230.399995" fill-opacity="1"/><g fill="#ffffff" fill-opacity="1"><g transform="translate(40.275002, 148.799998)"><g><path d="M 100.4375 -104.46875 L 100.4375 0 L 89.28125 0 C 87.601562 0 86.1875 -0.273438 85.03125 -0.828125 C 83.875 -1.378906 82.742188 -2.328125 81.640625 -3.671875 L 29.59375 -69.90625 C 29.738281 -68.226562 29.847656 -66.570312 29.921875 -64.9375 C 29.992188 -63.3125 30.03125 -61.800781 30.03125 -60.40625 L 30.03125 0 L 10.9375 0 L 10.9375 -104.46875 L 22.3125 -104.46875 C 23.226562 -104.46875 24.007812 -104.429688 24.65625 -104.359375 C 25.300781 -104.285156 25.890625 -104.117188 26.421875 -103.859375 C 26.953125 -103.597656 27.457031 -103.25 27.9375 -102.8125 C 28.414062 -102.382812 28.941406 -101.8125 29.515625 -101.09375 L 81.9375 -34.5625 C 81.738281 -36.382812 81.59375 -38.144531 81.5 -39.84375 C 81.40625 -41.550781 81.359375 -43.175781 81.359375 -44.71875 L 81.359375 -104.46875 Z M 100.4375 -104.46875 "/></g></g></g></svg>